<svg width="34" height="28" viewBox="0 0 34 28" fill="none" xmlns="http://www.w3.org/2000/svg">
<g filter="url(#filter0_d)">
<path d="M17.0739 6.3102C16.4337 6.3102 15.8223 6.43706 15.2396 6.69078C14.6569 6.9445 14.1563 7.28006 13.7377 7.69748C13.3191 8.11489 12.9826 8.61414 12.7282 9.19524C12.4738 9.77634 12.3466 10.3861 12.3466 11.0245C12.3466 11.6629 12.4738 12.2767 12.7282 12.866C12.9826 13.4553 13.3191 13.9586 13.7377 14.376C14.1563 14.7935 14.6569 15.1249 15.2396 15.3705C15.8223 15.616 16.4337 15.7388 17.0739 15.7388C17.9438 15.7388 18.7399 15.5301 19.4621 15.1127C20.1843 14.6952 20.7547 14.1264 21.1733 13.4062C21.5919 12.6859 21.8011 11.892 21.8011 11.0245C21.8011 9.73133 21.3415 8.62233 20.4224 7.69748C19.5032 6.77262 18.387 6.3102 17.0739 6.3102ZM17.0739 14.1673C16.5158 14.1673 15.9905 14.0241 15.4981 13.7377C15.0057 13.4512 14.6158 13.0665 14.3286 12.5836C14.0414 12.1007 13.8977 11.5728 13.8977 10.9999C13.8977 10.5743 13.9798 10.1692 14.1439 9.78453C14.3081 9.39986 14.5338 9.06429 14.821 8.77783C15.1083 8.49137 15.4448 8.2663 15.8305 8.10261C16.2162 7.93892 16.6225 7.85707 17.0492 7.85707C17.9192 7.85707 18.6619 8.16399 19.2775 8.77783C19.893 9.39167 20.2008 10.1324 20.2008 10.9999C20.2008 11.8675 19.8971 12.6123 19.2898 13.2343C18.6825 13.8563 17.9438 14.1673 17.0739 14.1673ZM29.6061 10.8281C29.6061 10.8117 29.602 10.7912 29.5938 10.7667C29.5855 10.7421 29.5814 10.7217 29.5814 10.7053C29.5814 10.6889 29.5773 10.6766 29.5691 10.6685L29.5568 10.6562V10.6316L29.5322 10.5825C28.416 8.01258 26.7254 5.99509 24.4602 4.53006C22.1951 3.06503 19.7247 2.33252 17.0492 2.33252C15.2929 2.33252 13.6023 2.65172 11.9773 3.29011C10.3523 3.9285 8.87911 4.87381 7.55777 6.12605C6.23643 7.37828 5.19823 8.86377 4.44318 10.5825V10.6439L4.41856 10.6807V10.7544L4.39394 10.8035C4.37753 10.9017 4.36932 10.9754 4.36932 11.0245C4.36932 11.0572 4.37342 11.09 4.38163 11.1227C4.38984 11.1554 4.39394 11.1882 4.39394 11.2209C4.39394 11.2373 4.40215 11.2618 4.41856 11.2946V11.3437L4.43087 11.3805L4.44318 11.3928V11.4664C5.57576 14.0364 7.27873 16.0457 9.55209 17.4944C11.8254 18.943 14.3081 19.6673 17 19.6673C18.7563 19.6673 20.4429 19.3522 22.0597 18.722C23.6765 18.0918 25.1414 17.1547 26.4545 15.9106C27.7677 14.6666 28.7936 13.1852 29.5322 11.4664C29.5486 11.4664 29.5568 11.4583 29.5568 11.4419V11.4051L29.5691 11.3805L29.5814 11.3682V11.2946L29.6061 11.2455C29.6225 11.1473 29.6307 11.0736 29.6307 11.0245C29.6307 10.9917 29.6266 10.959 29.6184 10.9263C29.6102 10.8935 29.6061 10.8608 29.6061 10.8281ZM17 18.0959C14.6692 18.0959 12.5107 17.4862 10.5246 16.2667C8.53851 15.0472 7.02841 13.2998 5.99432 11.0245C7.02841 8.74919 8.54672 6.99361 10.5492 5.75774C12.5518 4.52188 14.7184 3.90395 17.0492 3.90395C18.5593 3.90395 20.0079 4.16585 21.3949 4.68966C22.7819 5.21347 24.0581 6.01965 25.2235 7.10819C26.3889 8.19673 27.3163 9.50216 28.0057 11.0245C26.9716 13.2998 25.4615 15.0472 23.4754 16.2667C21.4893 17.4862 19.3308 18.0959 17 18.0959Z" fill="white"/>
</g>
<defs>
<filter id="filter0_d" x="0" y="0" width="34" height="30" filterUnits="userSpaceOnUse" color-interpolation-filters="sRGB">
<feFlood flood-opacity="0" result="BackgroundImageFix"/>
<feColorMatrix in="SourceAlpha" type="matrix" values="0 0 0 0 0 0 0 0 0 0 0 0 0 0 0 0 0 0 127 0" result="hardAlpha"/>
<feOffset dy="4"/>
<feGaussianBlur stdDeviation="2"/>
<feComposite in2="hardAlpha" operator="out"/>
<feColorMatrix type="matrix" values="0 0 0 0 0 0 0 0 0 0 0 0 0 0 0 0 0 0 0.25 0"/>
<feBlend mode="normal" in2="BackgroundImageFix" result="effect1_dropShadow"/>
<feBlend mode="normal" in="SourceGraphic" in2="effect1_dropShadow" result="shape"/>
</filter>
</defs>
</svg>
